Coordinates
version=1
nRows=24
nColumns=24
inDegrees=yes

Units are S.I. units (second, meters, Newtons, ...)
Angles are in degrees.

endheader
time	pelvis_tilt	pelvis_list	pelvis_rotation	pelvis_tx	pelvis_ty	pelvis_tz	hip_flexion_r	hip_adduction_r	hip_rotation_r	knee_angle_r	ankle_angle_r	subtalar_angle_r	mtp_angle_r	hip_flexion_l	hip_adduction_l	hip_rotation_l	knee_angle_l	ankle_angle_l	subtalar_angle_l	mtp_angle_l	lumbar_extension	lumbar_bending	lumbar_rotation
      3.78000000	     -1.60278141	      5.82207113	    -10.53053670	      0.11132890	      0.96078390	      0.00156638	     13.59919706	     -8.67996230	      7.82272059	    -57.34191806	      0.25187716	      0.00000000	      0.00000000	     11.26420602	      8.04716073	     -5.24161925	    -12.44356164	     11.21374914	      0.00000000	      0.00000000	     -2.14395206	     -6.96555863	      6.96070983
      3.79000000	     -1.47406516	      5.77869886	    -10.43068740	      0.11040634	      0.96145178	      0.00046963	     14.60392128	     -8.86211494	      7.30374718	    -57.32742705	      1.89485978	      0.00000000	      0.00000000	     10.50659517	      8.23402802	     -5.04707363	    -12.13396605	     11.36006354	      0.00000000	      0.00000000	     -2.34132120	     -6.93083015	      6.70618505
      3.80000000	     -1.39742762	      5.66857179	    -10.30670810	      0.10940000	      0.96211577	     -0.00053944	     15.57985950	     -8.89163116	      6.86964652	    -57.03130843	      3.29021492	      0.00000000	      0.00000000	      9.79438854	      8.33030865	     -4.88322527	    -11.82547578	     11.53707377	      0.00000000	      0.00000000	     -2.50093967	     -6.81404721	      6.44705731
      3.81000000	     -1.32071984	      5.52959069	    -10.16427946	      0.10823196	      0.96275985	     -0.00149839	     16.50880759	     -8.84411791	      6.47689819	    -56.50932189	      4.62930190	      0.00000000	      0.00000000	      9.13424808	      8.38094418	     -4.66853907	    -11.61645988	     11.68113066	      0.00000000	      0.00000000	     -2.69831846	     -6.67032160	      6.20576336
      3.82000000	     -1.33495444	      5.34585877	    -10.01995643	      0.10699273	      0.96332007	     -0.00238884	     17.45194931	     -8.66825381	      6.16754056	    -55.71638379	      5.76914313	      0.00000000	      0.00000000	      8.54486227	      8.35935705	     -4.51417203	    -11.35719710	     11.89985395	      0.00000000	      0.00000000	     -2.80618456	     -6.45102043	      5.99956406
      3.83000000	     -1.33214130	      5.14658136	     -9.87402746	      0.10560575	      0.96385671	     -0.00306988	     18.33164368	     -8.41383085	      5.93168637	    -54.71486269	      6.81789179	      0.00000000	      0.00000000	      8.02683832	      8.28952298	     -4.31060426	    -11.27685257	     12.07055293	      0.00000000	      0.00000000	     -2.95165573	     -6.26104636	      5.79933758
      3.84000000	     -1.35249545	      4.88841974	     -9.70007966	      0.10414120	      0.96429464	     -0.00380484	     19.16214643	     -8.07423307	      5.71331681	    -53.51276160	      7.80036633	      0.00000000	      0.00000000	      7.56449264	      8.15686956	     -4.09580712	    -11.26558721	     12.29164483	      0.00000000	      0.00000000	     -3.10808494	     -5.97767396	      5.56904646
      3.85000000	     -1.36812783	      4.81415703	     -9.61651890	      0.10254640	      0.96468329	     -0.00439350	     20.02077804	     -7.87504211	      5.69217327	    -52.10776391	      8.22180694	      0.00000000	      0.00000000	      7.16563081	      8.19545601	     -4.00832533	    -11.29858257	     12.44958416	      0.00000000	      0.00000000	     -3.23996473	     -5.91172424	      5.44920945
      3.86000000	     -1.46598591	      4.28829909	     -9.31455860	      0.10089922	      0.96498006	     -0.00503371	     20.68854117	     -7.21606642	      5.36598593	    -50.42512974	      9.17637785	      0.00000000	      0.00000000	      6.84031308	      7.74891063	     -3.68973519	    -11.46743479	     12.91163573	      0.00000000	      0.00000000	     -3.40281668	     -5.32529590	      5.14091878
      3.87000000	     -1.51943915	      4.24119548	     -9.22988206	      0.09917553	      0.96511638	     -0.00551439	     21.51815639	     -7.02287806	      5.37820259	    -48.73508355	      9.46707587	      0.00000000	      0.00000000	      6.49893253	      7.79827634	     -3.60303923	    -11.48553578	     13.07734984	      0.00000000	      0.00000000	     -3.52252802	     -5.29379434	      5.05981325
      3.88000000	     -1.63740988	      3.75776769	     -8.95194099	      0.09747047	      0.96524431	     -0.00603861	     22.09833985	     -6.40461021	      5.11261667	    -46.67368356	      9.91554354	      0.00000000	      0.00000000	      6.21126528	      7.38186082	     -3.33568496	    -11.63667118	     13.48181536	      0.00000000	      0.00000000	     -3.66883310	     -4.75832702	      4.82769758
      3.89000000	     -1.67405834	      3.81859842	     -8.86948308	      0.09564592	      0.96513541	     -0.00642293	     22.85947108	     -6.33200208	      5.16377771	    -44.76106155	      9.97054720	      0.00000000	      0.00000000	      5.92167655	      7.53833807	     -3.25395443	    -11.73258503	     13.67050214	      0.00000000	      0.00000000	     -3.81684374	     -4.86074093	      4.75648065
      3.90000000	     -1.74710746	      3.23451620	     -8.48474279	      0.09397235	      0.96520933	     -0.00709256	     23.18479274	     -5.72034722	      4.69156295	    -42.30402894	      9.76710604	      0.00000000	      0.00000000	      5.62505424	      7.03987202	     -2.83155794	    -11.99266619	     14.21404645	      0.00000000	      0.00000000	     -4.05573282	     -4.20082229	      4.45711934
      3.91000000	     -1.81861536	      3.26652382	     -8.33672603	      0.09226017	      0.96487461	     -0.00751685	     23.82865139	     -5.66397639	      4.60854422	    -40.13673098	      9.58344381	      0.00000000	      0.00000000	      5.33302433	      7.17870816	     -2.66293351	    -12.03379629	     14.50193179	      0.00000000	      0.00000000	     -4.17408304	     -4.25725524	      4.38533179
      3.92000000	     -1.85312096	      2.90796471	     -7.95628075	      0.09066492	      0.96473942	     -0.00815176	     24.09980314	     -5.34917308	      4.08496183	    -37.55682496	      8.79000099	      0.00000000	      0.00000000	      4.97167557	      6.91856363	     -2.16781958	    -12.17739855	     14.96573923	      0.00000000	      0.00000000	     -4.41746751	     -3.86395717	      4.11903154
      3.93000000	     -1.80812327	      2.73127863	     -7.62278269	      0.08907879	      0.96446995	     -0.00875850	     24.33721401	     -5.21544366	      3.64213082	    -35.03485942	      8.07385795	      0.00000000	      0.00000000	      4.60650215	      6.86193478	     -1.74565612	    -12.42273034	     15.41032833	      0.00000000	      0.00000000	     -4.72111903	     -3.68256203	      3.90622777
      3.94000000	     -1.87649447	      2.94484920	     -7.47740334	      0.08751873	      0.96373734	     -0.00909416	     24.88447429	     -5.35640113	      3.52359585	    -32.76386806	      7.75415540	      0.00000000	      0.00000000	      4.34950455	      7.18122682	     -1.57077880	    -12.51948076	     15.71042748	      0.00000000	      0.00000000	     -4.81870954	     -3.94434768	      3.92246117
      3.95000000	     -1.79013911	      2.58980669	     -6.90025743	      0.08613918	      0.96353072	     -0.00992742	     24.78919670	     -5.16312625	      2.66446243	    -29.92407215	      6.24001669	      0.00000000	      0.00000000	      3.87938796	      6.95010929	     -0.84449371	    -12.74182173	     16.22784954	      0.00000000	      0.00000000	     -5.20338773	     -3.54560459	      3.53242844
      3.96000000	     -1.86394153	      2.86397416	     -6.72979178	      0.08478305	      0.96257553	     -0.01021321	     25.26937292	     -5.35205741	      2.46470906	    -27.65072314	      5.88330837	      0.00000000	      0.00000000	      3.61938819	      7.32295399	     -0.64764370	    -12.86149666	     16.56735007	      0.00000000	      0.00000000	     -5.26866468	     -3.86947114	      3.60320198
      3.97000000	     -1.69309258	      2.47472820	     -6.05916309	      0.08352183	      0.96234404	     -0.01110432	     24.90962181	     -5.13620553	      1.45812717	    -24.66183088	      4.29487334	      0.00000000	      0.00000000	      3.08916361	      7.04667363	      0.14459366	    -13.17771832	     17.14557136	      0.00000000	      0.00000000	     -5.75039462	     -3.42333028	      3.19494723
      3.98000000	     -1.81431674	      2.80700935	     -5.81679367	      0.08223300	      0.96120021	     -0.01134241	     25.38224692	     -5.34949984	      1.24042738	    -22.46010678	      3.95786015	      0.00000000	      0.00000000	      2.87686342	      7.45019057	      0.28202005	    -13.30030869	     17.46543158	      0.00000000	      0.00000000	     -5.76547155	     -3.80656330	      3.24561967
      3.99000000	     -1.83229322	      2.56869478	     -5.12892366	      0.08098698	      0.96051035	     -0.01214344	     25.21630007	     -5.19853615	      0.34010367	    -19.56940456	      2.38048220	      0.00000000	      0.00000000	      2.59876836	      7.27830097	      0.95035927	    -13.67742718	     17.90436539	      0.00000000	      0.00000000	     -6.00828010	     -3.50232713	      2.89799081
      4.00000000	     -1.96056822	      2.84861625	     -4.80081102	      0.07979607	      0.95927349	     -0.01231246	     25.56546695	     -5.32729709	      0.13888064	    -17.35955405	      2.29563100	      0.00000000	      0.00000000	      2.41646700	      7.59939696	      1.04457484	    -13.88525554	     18.26294941	      0.00000000	      0.00000000	     -6.02507613	     -3.82569323	      2.94994204
      4.01000000	     -1.95030711	      2.50648639	     -4.06604921	      0.07862540	      0.95852392	     -0.01296998	     25.17900143	     -5.02318653	     -0.67157009	    -14.33932897	      1.09973971	      0.00000000	      0.00000000	      2.18140937	      7.27797504	      1.56997862	    -14.44179236	     18.82345805	      0.00000000	      0.00000000	     -6.30460484	     -3.40191775	      2.64302823
